<svg width="256" height="256" viewBox="0 0 256 256" fill="none" xmlns="http://www.w3.org/2000/svg">
<rect width="256" height="256" fill="#030A53"/>
<path opacity="0.4" d="M181.829 78.4233H67.5225V174.459H181.829V78.4233Z" fill="#6FEAEB"/>
<path d="M168.498 56.9449C148.289 58.0183 132.757 75.2933 133.83 95.5022C134.904 115.711 152.179 131.243 172.387 130.17C172.786 130.153 173.148 129.925 173.333 129.568C173.514 129.21 173.492 128.786 173.274 128.45C173.052 128.114 172.668 127.925 172.27 127.951C153.261 128.961 137.059 114.393 136.049 95.3843C135.039 76.376 149.608 60.1735 168.616 59.1639C178.969 58.6139 188.474 62.6942 195.164 69.5882L191.63 73.5178L204.07 77.3075L200.035 64.1706L196.653 67.9314C189.539 60.6601 179.45 56.3632 168.498 56.9449ZM205.887 90.5622C205.276 90.5946 204.804 91.1195 204.836 91.7306C204.869 92.3416 205.394 92.8136 206.005 92.7811C206.616 92.7486 207.088 92.2238 207.055 91.6127C207.023 91.0016 206.498 90.5297 205.887 90.5622ZM205.787 95.2221C205.246 95.2683 204.821 95.6993 204.78 96.2404C204.757 96.5329 204.851 96.8278 205.041 97.048C205.235 97.2724 205.508 97.4144 205.8 97.4336C206.092 97.4572 206.387 97.3633 206.607 97.1734C206.832 96.979 206.974 96.7063 206.997 96.4139C207.017 96.1216 206.923 95.8268 206.733 95.6065C206.538 95.3821 206.266 95.2402 205.973 95.2166C205.912 95.2155 205.847 95.2146 205.787 95.2221ZM205.153 99.8149C204.655 99.85 204.239 100.207 204.135 100.699C204.006 101.297 204.389 101.885 204.991 102.014C205.594 102.143 206.182 101.759 206.311 101.157C206.435 100.555 206.052 99.967 205.454 99.838C205.353 99.8173 205.252 99.8096 205.153 99.8149ZM203.93 104.291C203.47 104.302 203.069 104.598 202.918 105.027C202.714 105.607 203.017 106.243 203.597 106.447C204.173 106.651 204.809 106.348 205.013 105.768C205.217 105.192 204.913 104.556 204.338 104.352C204.205 104.307 204.069 104.284 203.93 104.291ZM202.019 108.574C201.643 108.611 201.312 108.837 201.139 109.172C200.863 109.721 201.081 110.388 201.626 110.667C201.89 110.801 202.195 110.824 202.473 110.736C202.755 110.642 202.988 110.443 203.122 110.18C203.401 109.634 203.179 108.968 202.634 108.689C202.446 108.59 202.231 108.554 202.019 108.574ZM199.68 112.561C199.342 112.584 199.034 112.761 198.841 113.041C198.494 113.546 198.622 114.239 199.131 114.585C199.637 114.932 200.325 114.805 200.676 114.299C201.023 113.794 200.891 113.101 200.386 112.754C200.178 112.613 199.931 112.544 199.68 112.561ZM196.836 116.215C196.537 116.231 196.253 116.364 196.056 116.587C195.646 117.039 195.683 117.746 196.139 118.152C196.591 118.562 197.298 118.525 197.704 118.069C198.115 117.617 198.077 116.91 197.621 116.504C197.406 116.307 197.127 116.204 196.836 116.215ZM193.514 119.46C193.484 119.462 193.458 119.463 193.432 119.469C193.212 119.489 192.999 119.583 192.833 119.727C192.363 120.126 192.309 120.828 192.708 121.294C193.106 121.759 193.809 121.818 194.274 121.415C194.74 121.021 194.799 120.318 194.4 119.852C194.177 119.59 193.853 119.447 193.514 119.46ZM189.738 122.251C189.556 122.265 189.377 122.327 189.221 122.426C188.705 122.762 188.559 123.452 188.895 123.965C189.23 124.477 189.916 124.628 190.433 124.292C190.677 124.131 190.85 123.878 190.913 123.588C190.976 123.302 190.921 123.001 190.756 122.753C190.538 122.413 190.145 122.221 189.738 122.251ZM185.721 124.525C185.574 124.532 185.428 124.566 185.293 124.634C184.737 124.898 184.503 125.558 184.771 126.113C185.036 126.669 185.696 126.903 186.251 126.635C186.806 126.37 187.04 125.71 186.776 125.155C186.581 124.753 186.168 124.505 185.721 124.525ZM181.432 126.252C181.324 126.257 181.212 126.272 181.105 126.308C180.524 126.5 180.205 127.125 180.393 127.711C180.584 128.292 181.21 128.61 181.795 128.419C182.38 128.231 182.699 127.606 182.507 127.02C182.357 126.559 181.923 126.247 181.432 126.252ZM176.852 127.408C176.813 127.41 176.778 127.412 176.744 127.418C176.137 127.533 175.742 128.11 175.852 128.717C175.907 129.005 176.073 129.261 176.316 129.427C176.56 129.596 176.859 129.659 177.151 129.604C177.749 129.49 178.149 128.912 178.039 128.31C177.931 127.75 177.419 127.36 176.852 127.408Z" fill="white"/>
<path d="M167.839 91.3291H53V187.108H167.839V91.3291Z" fill="#6FEAEB"/>
<g opacity="0.09">
<rect x="60.0564" y="164.306" width="73.3459" height="12.541" rx="6.2705" fill="#030A53"/>
<rect x="60.0564" y="103.881" width="17.8614" height="17.8614" fill="#030A53"/>
<rect x="60.0564" y="132.383" width="95.0076" height="4.56036" rx="2.28018" fill="#030A53"/>
<rect x="60.0564" y="142.645" width="58.9047" height="4.56036" rx="2.28018" fill="#030A53"/>
</g>
</svg>
